<svg width="211" height="27" viewBox="0 0 211 27" fill="none" xmlns="http://www.w3.org/2000/svg">
<path fill-rule="evenodd" clip-rule="evenodd" d="M13.7385 1.78809C17.3922 1.78809 20.0287 3.5441 20.0287 7.05021C20.0287 9.43747 18.538 12.1704 14.9576 13.225C17.1781 13.7126 18.5728 15.6765 18.5728 17.9551C18.5728 19.4969 17.9448 21.8888 16.3096 23.5726C14.5357 25.3962 12.521 26.1639 8.76544 26.1639H0L5.14815 1.78809H13.7385ZM5.70663 22.1681H8.86933C9.8807 22.1681 10.7412 21.8888 11.3714 21.4591C12.4518 20.7269 13.2127 19.2155 13.2127 17.8482C13.2127 16.1332 12.2784 15.5717 10.1212 15.5717H7.09338L5.70663 22.1681ZM7.92542 11.5429H10.7781C12.1049 11.5429 12.7292 11.2615 13.3224 10.836C14.0833 10.2766 14.7842 9.2955 14.7842 8.10483C14.7842 6.59388 14.1159 5.96263 12.1049 5.96263H9.07923L7.92542 11.5429Z" fill="#1C1B19"/>
<path fill-rule="evenodd" clip-rule="evenodd" d="M29.6305 5.5769L26.813 18.8666C26.3601 20.9707 26.2215 21.8525 26.2215 22.3439C26.2215 23.006 26.5009 23.3618 27.1285 23.3618C27.2982 23.3618 27.4754 23.3618 27.6505 23.2879L27.8587 26.0947C27.0208 26.4095 25.9789 26.5861 24.9658 26.5861C22.4676 26.5861 21.2832 25.2205 21.2832 23.3618C21.2832 22.7263 21.5258 21.3882 21.8031 20.1003L24.6227 6.69955C25.1104 4.34904 25.3932 2.70162 25.0392 1.50926L29.9774 0C30.1161 0.807867 30.1161 3.29822 29.6305 5.5769Z" fill="#1C1B19"/>
<path fill-rule="evenodd" clip-rule="evenodd" d="M46.7787 13.5055L45.3476 20.3065C45.0317 21.8525 45.1762 22.8974 46.0141 23.8181L42.148 26.7242C41.3185 26.1648 40.9364 25.2204 40.7943 24.5152C39.473 25.9201 38.015 26.654 36.0698 26.654C32.8341 26.654 31.1604 24.6551 31.1604 20.9356C31.1604 16.6254 32.7994 12.8007 34.9235 10.6619C36.867 8.69591 39.0548 7.85889 42.0135 7.85889C44.0991 7.85889 46.426 8.20451 47.9263 9.08252C47.5391 10.1667 47.0557 12.1403 46.7787 13.5055ZM41.3897 11.5048C40.2375 11.5048 39.369 11.575 38.113 13.0513C36.6592 14.8014 35.929 18.3443 35.929 20.7277C35.929 22.3439 36.3433 23.041 37.3543 23.041C38.8143 23.041 40.3071 21.5339 40.7943 20.2401L42.6394 11.7829C42.4295 11.6447 41.8057 11.5048 41.3897 11.5048Z" fill="#1C1B19"/>
<path fill-rule="evenodd" clip-rule="evenodd" d="M61.66 12.7679C60.8954 11.8899 59.8903 11.4331 59.0197 11.4331C58.1797 11.4331 57.4553 11.783 56.8257 12.4881C55.5411 13.9602 54.3601 17.6704 54.3601 20.4464C54.3601 22.3072 55.2273 23.1091 56.4792 23.1091C57.7637 23.1091 59.0541 22.3769 60.3717 21.3206L61.9374 24.2377C59.9921 25.7453 58.0084 26.6195 55.3966 26.6195C51.4404 26.6195 49.2874 24.3057 49.2874 20.4464C49.2874 15.9921 51.3386 11.9228 53.7999 9.82117C55.3966 8.45346 57.1721 7.68066 59.6457 7.68066C61.2788 7.68066 63.0836 8.34867 64.3698 9.82117L61.66 12.7679Z" fill="#1C1B19"/>
<path fill-rule="evenodd" clip-rule="evenodd" d="M73.6237 0.000976562C73.8625 0.877292 73.8277 3.01569 73.0325 6.77024L68.9301 26.1637H64.2729L68.4483 6.45166C68.9649 3.96172 69.0382 2.52809 68.7952 1.51023L73.6237 0.000976562ZM82.9744 8.20598L75.7092 15.9931L80.5097 26.1637H75.0142L71.1874 15.9931L77.2062 8.20598H82.9744Z" fill="#1C1B19"/>
<path fill-rule="evenodd" clip-rule="evenodd" d="M103.116 14.2397C102.706 16.6252 101.725 19.356 100.477 21.1141L104.472 26.1641H98.322L97.1355 24.6181C95.4329 25.8168 93.3775 26.6539 90.0036 26.6539C85.1747 26.6539 82.4958 24.237 82.4958 21.0402C82.4958 18.1011 84.5102 15.5001 88.3433 13.8919C86.91 12.5555 86.5288 11.3957 86.5288 9.85555C86.5288 5.96283 90.1108 2.80615 94.8032 2.80615C98.3853 2.80615 100.648 4.59343 100.648 7.1552C100.648 9.85555 99.6723 11.8913 95.2845 13.9266L94.8321 14.1387L98.0367 18.0314C98.6647 17.0427 99.1503 14.906 99.2215 14.2397H103.116ZM87.6113 20.6591C87.6113 22.2697 88.792 23.2175 90.8759 23.2175C92.54 23.2175 93.8995 22.759 94.8321 21.9588L90.3115 16.4833C88.5837 17.4289 87.6113 18.8684 87.6113 20.6591ZM95.8795 7.78856C95.8795 6.7707 95.1844 6.06762 94.1425 6.06762C92.6091 6.06762 91.3287 7.36519 91.3287 8.94628C91.3287 9.68063 91.6367 10.4885 92.713 11.7493C94.6972 10.941 95.8795 9.36584 95.8795 7.78856Z" fill="#1C1B19"/>
<path fill-rule="evenodd" clip-rule="evenodd" d="M117.484 1.78809C121.514 1.78809 123.991 2.2423 125.512 4.17324C126.626 5.61447 127.354 7.22302 127.354 10.1017C127.354 14.1013 125.925 19.3224 122.945 22.5159C120.399 25.2217 117.97 26.1639 112.647 26.1639H106.764L111.91 1.78809H117.484ZM112.577 22.1681H114.977C117.061 22.1681 118.631 21.0087 119.497 19.6355C121.652 16.238 122.109 11.3274 122.109 10.0298C122.109 7.78836 121.479 5.64785 118.249 5.64785H116.05L112.577 22.1681Z" fill="#1C1B19"/>
<path fill-rule="evenodd" clip-rule="evenodd" d="M142.549 24.202C140.157 25.8845 137.826 26.6535 135.323 26.6535C131.082 26.6535 128.574 24.4077 128.574 20.0646C128.574 16.3451 130.211 12.52 132.576 10.2029C134.346 8.48745 136.332 7.82324 138.695 7.82324C142.202 7.82324 144.743 9.2256 144.743 12.7338C144.743 16.133 141.654 18.9027 135.737 18.9027C134.52 18.9027 133.618 18.6563 133.618 18.6563C133.618 18.6563 133.445 19.8179 133.445 20.2708C133.445 22.3061 134.485 23.1452 136.436 23.1452C138.038 23.1452 139.706 22.446 141.368 21.2553L142.549 24.202ZM135.702 15.6049C137.72 15.6049 140.049 14.9056 140.049 13.1183C140.049 12.0286 139.564 11.2613 138.179 11.2613C136.397 11.2613 135.082 12.3105 134.381 15.4316C134.381 15.4316 135.082 15.6049 135.702 15.6049Z" fill="#1C1B19"/>
<path fill-rule="evenodd" clip-rule="evenodd" d="M158.692 12.7679C157.928 11.8899 156.916 11.4331 156.051 11.4331C155.218 11.4331 154.482 11.783 153.863 12.4881C152.573 13.9602 151.39 17.6704 151.39 20.4464C151.39 22.3072 152.256 23.1091 153.509 23.1091C154.802 23.1091 156.082 22.3769 157.411 21.3206L158.971 24.2377C157.024 25.7453 155.046 26.6195 152.434 26.6195C148.463 26.6195 146.308 24.3057 146.308 20.4464C146.308 15.9921 148.364 11.9228 150.832 9.82117C152.434 8.45346 154.205 7.68066 156.675 7.68066C158.309 7.68066 160.113 8.34867 161.402 9.82117L158.692 12.7679Z" fill="#1C1B19"/>
<path fill-rule="evenodd" clip-rule="evenodd" d="M170.653 0.000976562C170.898 0.877292 170.861 3.01569 170.062 6.77024L165.958 26.1637H161.298L165.472 6.45166C165.994 3.96172 166.067 2.52809 165.821 1.51023L170.653 0.000976562ZM180.004 8.20598L172.745 15.9931L177.545 26.1637H172.048L168.217 15.9931L174.24 8.20598H180.004Z" fill="#1C1B19"/>
<path fill-rule="evenodd" clip-rule="evenodd" d="M193.47 24.202C191.071 25.8845 188.743 26.6535 186.239 26.6535C181.99 26.6535 179.483 24.4077 179.483 20.0646C179.483 16.3451 181.122 12.52 183.485 10.2029C185.266 8.48745 187.246 7.82324 189.613 7.82324C193.124 7.82324 195.654 9.2256 195.654 12.7338C195.654 16.133 192.563 18.9027 186.649 18.9027C185.43 18.9027 184.531 18.6563 184.531 18.6563C184.531 18.6563 184.357 19.8179 184.357 20.2708C184.357 22.3061 185.399 23.1452 187.346 23.1452C188.951 23.1452 190.621 22.446 192.289 21.2553L193.47 24.202ZM186.618 15.6049C188.635 15.6049 190.968 14.9056 190.968 13.1183C190.968 12.0286 190.482 11.2613 189.084 11.2613C187.312 11.2613 185.995 12.3105 185.295 15.4316C185.295 15.4316 185.995 15.6049 186.618 15.6049Z" fill="#1C1B19"/>
<path fill-rule="evenodd" clip-rule="evenodd" d="M203.554 7.61035C203.837 8.20484 204.114 9.50791 203.972 10.5199C205.538 8.90961 207.206 7.78697 208.949 7.78697C209.607 7.78697 209.921 7.8588 210.547 8.17358L208.535 12.3109C208.111 12.0663 207.693 11.9594 207.177 11.9594C206.273 11.9594 205.26 12.488 203.802 14.4147L201.331 26.1647H196.67L199.172 14.3078C199.655 12.0663 199.592 10.489 199.244 9.32918L203.554 7.61035Z" fill="#1C1B19"/>
</svg>
